# xmcd
#
# Track frame offsets: 
#        150
#        35071
#        50128
#        80514
#        102127
#        131824
#        149807
#        170226
#        210597
#        237696
#        261107
#
# Disc length: 3727 seconds
#
# Revision: 0
# Processed by: cddbd v1.5.2PL0 Copyright (c) Steve Scherf et al.
# Submitted via: ExactAudioCopy v0.99pb4
#
DISCID=b20e8d0b
DTITLE=Tom Waits - On The Radio
DYEAR=2008
DGENRE=Blues
TTITLE0=Emotional Weather Report
TTITLE1=A Sight For Sore Eyes
TTITLE2=Step Right Up
TTITLE3=Eggs and Sausage - Invitation to the Blues
TTITLE4=Jitterbug Boy
TTITLE5=Diamonds on my Windshield
TTITLE6=San Diego Serenade
TTITLE7=Tom Traubert's Blues
TTITLE8=New Coat of Paint
TTITLE9=The Piano Has Been Drinking (Not Me)
TTITLE10=I Can't Wait To Get Off Work
EXTD=a Godfellas Production FELL 06
EXTT0=
EXTT1=
EXTT2=
EXTT3=
EXTT4=
EXTT5=
EXTT6=
EXTT7=
EXTT8=
EXTT9=
EXTT10=
PLAYORDER=
